# xmcd
# 
# Track frame offsets:
#     182
#     11777
#     24450
#     37270
#     49515
#     64517
#     77110
#     86925
#     94175
#     107682
#     123380
#     128892
#     140345
#     151535
#     160747
#     171235
#     181210
#     198540
#     207085
#     219652
# 
# Disc length: 3071
# 
# Revision: 1
# Processed by: cddbd v1.5.2PL0 Copyright (c) Steve Scherf et al.
# Submitted via: fre:ac v1.0.27
# 
DISCID=110bfd14
DTITLE=Various Artist - Country Music 40 Hits [CD 1/2)
DYEAR=1990
DGENRE=Country
TTITLE0=Willie Nelson - Some Other Time
TTITLE1=Patsy Cline - Yes I Understand
TTITLE2=Donna Fargo - Daddy
TTITLE3=Stonewall Jackson - Muddy Water
TTITLE4=Carl Perkins - I Dont Want To Fall
TTITLE5=Johnny Cash - Folsom Prison Blues
TTITLE6=Dolly Parton - Release Me
TTITLE7=Conway Twitty - Treat Me Crue
TTITLE8=Hoyt Axton - Lonsome Road
TTITLE9=Ray Pillow - How  De Hide From Memory
TTITLE10=Georges Jones - Liberty
TTITLE11=Waylon Jennings - Crying
TTITLE12=D Cole - Take This Job And Shove It
TTITLE13=Faron Young - I´ll Be There
TTITLE14=Patsy Cline - Gotta Lot Of Rhytmn
TTITLE15=Johnny Cash - Hey Porter
TTITLE16=Kenny Rogers - Something Burning
TTITLE17=Conway Twitty and Loretta Lynn - Blue In The Way
TTITLE18=Willie Nelson - I Just Dont Understand
TTITLE19=Donna Fargo - Wisfol Thinking
EXTD=
EXTT0=
EXTT1=
EXTT2=
EXTT3=
EXTT4=
EXTT5=
EXTT6=
EXTT7=
EXTT8=
EXTT9=
EXTT10=
EXTT11=
EXTT12=
EXTT13=
EXTT14=
EXTT15=
EXTT16=
EXTT17=
EXTT18=
EXTT19=
PLAYORDER=
